%TF.GenerationSoftware,KiCad,Pcbnew,10.0.5*%
%TF.CreationDate,2026-09-02T22:45:12-04:00*%
%TF.ProjectId,BME_261_emg_hand,424d455f-3236-4315-9f65-6d675f68616e,rev?*%
%TF.SameCoordinates,Original*%
%TF.FileFunction,Soldermask,Top*%
%TF.FilePolarity,Negative*%
%FSLAX46Y46*%
G04 Gerber Fmt 4.6, Leading zero omitted, Abs format (unit mm)*
G04 Created by KiCad (PCBNEW 10.0.5) date 2026-09-02 22:45:12*
%MOMM*%
%LPD*%
G01*
G04 APERTURE LIST*
G04 Aperture macros list*
%AMRoundRect*
0 Rectangle with rounded corners*
0 $1 Rounding radius*
0 $2 $3 $4 $5 $6 $7 $8 $9 X,Y pos of 4 corners*
0 Add a 4 corners polygon primitive as box body*
4,1,4,$2,$3,$4,$5,$6,$7,$8,$9,$2,$3,0*
0 Add four circle primitives for the rounded corners*
1,1,$1+$1,$2,$3*
1,1,$1+$1,$4,$5*
1,1,$1+$1,$6,$7*
1,1,$1+$1,$8,$9*
0 Add four rect primitives between the rounded corners*
20,1,$1+$1,$2,$3,$4,$5,0*
20,1,$1+$1,$4,$5,$6,$7,0*
20,1,$1+$1,$6,$7,$8,$9,0*
20,1,$1+$1,$8,$9,$2,$3,0*%
G04 Aperture macros list end*
%ADD10C,1.600000*%
%ADD11RoundRect,0.250000X-0.550000X-0.550000X0.550000X-0.550000X0.550000X0.550000X-0.550000X0.550000X0*%
%ADD12R,1.700000X1.700000*%
%ADD13C,1.700000*%
%ADD14RoundRect,0.250000X0.550000X0.550000X-0.550000X0.550000X-0.550000X-0.550000X0.550000X-0.550000X0*%
G04 APERTURE END LIST*
D10*
%TO.C,U4*%
X157815000Y-75045000D03*
X157815000Y-77585000D03*
X157815000Y-80125000D03*
X157815000Y-82665000D03*
X150195000Y-82665000D03*
X150195000Y-80125000D03*
X150195000Y-77585000D03*
D11*
X150195000Y-75045000D03*
%TD*%
%TO.C,U5*%
X154195000Y-113690000D03*
D10*
X154195000Y-116230000D03*
X154195000Y-118770000D03*
X154195000Y-121310000D03*
X161815000Y-121310000D03*
X161815000Y-118770000D03*
X161815000Y-116230000D03*
X161815000Y-113690000D03*
%TD*%
D11*
%TO.C,U3*%
X178695000Y-96690000D03*
D10*
X178695000Y-99230000D03*
X178695000Y-101770000D03*
X178695000Y-104310000D03*
X186315000Y-104310000D03*
X186315000Y-101770000D03*
X186315000Y-99230000D03*
X186315000Y-96690000D03*
%TD*%
D11*
%TO.C,U2*%
X150190000Y-96690000D03*
D10*
X150190000Y-99230000D03*
X150190000Y-101770000D03*
X150190000Y-104310000D03*
X157810000Y-104310000D03*
X157810000Y-101770000D03*
X157810000Y-99230000D03*
X157810000Y-96690000D03*
%TD*%
D11*
%TO.C,U1*%
X126690000Y-96690000D03*
X126690000Y-99230000D03*
X126690000Y-101770000D03*
X126690000Y-104310000D03*
X134310000Y-104310000D03*
X134310000Y-101770000D03*
X134310000Y-99230000D03*
X134310000Y-96690000D03*
%TD*%
D10*
%TO.C,R12*%
X127310000Y-76500000D03*
X119690000Y-76500000D03*
%TD*%
%TO.C,R11*%
X120690000Y-83000000D03*
X128310000Y-83000000D03*
%TD*%
%TO.C,R10*%
X163000000Y-82810000D03*
X163000000Y-75190000D03*
%TD*%
%TO.C,R9*%
X150190000Y-87500000D03*
X157810000Y-87500000D03*
%TD*%
%TO.C,R8*%
X134310000Y-92000000D03*
X126690000Y-92000000D03*
%TD*%
%TO.C,R7*%
X131190000Y-82500000D03*
X138810000Y-82500000D03*
%TD*%
%TO.C,R6*%
X178690000Y-91500000D03*
X186310000Y-91500000D03*
%TD*%
%TO.C,R5*%
X168310000Y-93500000D03*
X160690000Y-93500000D03*
%TD*%
%TO.C,R4*%
X187810000Y-78500000D03*
X180190000Y-78500000D03*
%TD*%
%TO.C,R3*%
X160690000Y-98500000D03*
X168310000Y-98500000D03*
%TD*%
%TO.C,R2*%
X139690000Y-107500000D03*
X147310000Y-107500000D03*
%TD*%
%TO.C,R1*%
X147810000Y-91500000D03*
X140190000Y-91500000D03*
%TD*%
D12*
%TO.C,J_BATT1*%
X132000000Y-75500000D03*
D13*
X134540000Y-75500000D03*
%TD*%
%TO.C,JArduino1*%
X136000000Y-118235000D03*
D12*
X136000000Y-120775000D03*
%TD*%
%TO.C,J1*%
X121000000Y-103540000D03*
D13*
X121000000Y-101000000D03*
X121000000Y-98460000D03*
%TD*%
D14*
%TO.C,D1*%
X147310000Y-76500000D03*
D10*
X139690000Y-76500000D03*
%TD*%
%TO.C,C9*%
X180500000Y-116000000D03*
X185500000Y-116000000D03*
%TD*%
%TO.C,C8*%
X172500000Y-102000000D03*
X172500000Y-97000000D03*
%TD*%
%TO.C,C7*%
X180500000Y-110000000D03*
X185500000Y-110000000D03*
%TD*%
%TO.C,C6*%
X142000000Y-82500000D03*
X147000000Y-82500000D03*
%TD*%
%TO.C,C5*%
X145500000Y-118500000D03*
X150500000Y-118500000D03*
%TD*%
%TO.C,C4*%
X167500000Y-108000000D03*
X162500000Y-108000000D03*
%TD*%
%TO.C,C3*%
X167000000Y-102500000D03*
X162000000Y-102500000D03*
%TD*%
%TO.C,C2*%
X141000000Y-101500000D03*
X146000000Y-101500000D03*
%TD*%
%TO.C,C1*%
X141000000Y-96500000D03*
X146000000Y-96500000D03*
%TD*%
M02*
