%TF.GenerationSoftware,KiCad,Pcbnew,10.0.5*%
%TF.CreationDate,2026-09-02T22:45:12-04:00*%
%TF.ProjectId,BME_261_emg_hand,424d455f-3236-4315-9f65-6d675f68616e,rev?*%
%TF.SameCoordinates,Original*%
%TF.FileFunction,Copper,L1,Top*%
%TF.FilePolarity,Positive*%
%FSLAX46Y46*%
G04 Gerber Fmt 4.6, Leading zero omitted, Abs format (unit mm)*
G04 Created by KiCad (PCBNEW 10.0.5) date 2026-09-02 22:45:12*
%MOMM*%
%LPD*%
G01*
G04 APERTURE LIST*
G04 Aperture macros list*
%AMRoundRect*
0 Rectangle with rounded corners*
0 $1 Rounding radius*
0 $2 $3 $4 $5 $6 $7 $8 $9 X,Y pos of 4 corners*
0 Add a 4 corners polygon primitive as box body*
4,1,4,$2,$3,$4,$5,$6,$7,$8,$9,$2,$3,0*
0 Add four circle primitives for the rounded corners*
1,1,$1+$1,$2,$3*
1,1,$1+$1,$4,$5*
1,1,$1+$1,$6,$7*
1,1,$1+$1,$8,$9*
0 Add four rect primitives between the rounded corners*
20,1,$1+$1,$2,$3,$4,$5,0*
20,1,$1+$1,$4,$5,$6,$7,0*
20,1,$1+$1,$6,$7,$8,$9,0*
20,1,$1+$1,$8,$9,$2,$3,0*%
G04 Aperture macros list end*
%TA.AperFunction,ComponentPad*%
%ADD10C,1.600000*%
%TD*%
%TA.AperFunction,ComponentPad*%
%ADD11RoundRect,0.250000X-0.550000X-0.550000X0.550000X-0.550000X0.550000X0.550000X-0.550000X0.550000X0*%
%TD*%
%TA.AperFunction,SMDPad,CuDef*%
%ADD12RoundRect,0.250000X-0.550000X-0.550000X0.550000X-0.550000X0.550000X0.550000X-0.550000X0.550000X0*%
%TD*%
%TA.AperFunction,ComponentPad*%
%ADD13R,1.700000X1.700000*%
%TD*%
%TA.AperFunction,ComponentPad*%
%ADD14C,1.700000*%
%TD*%
%TA.AperFunction,ComponentPad*%
%ADD15RoundRect,0.250000X0.550000X0.550000X-0.550000X0.550000X-0.550000X-0.550000X0.550000X-0.550000X0*%
%TD*%
%TA.AperFunction,ViaPad*%
%ADD16C,0.600000*%
%TD*%
%TA.AperFunction,Conductor*%
%ADD17C,0.400000*%
%TD*%
G04 APERTURE END LIST*
D10*
%TO.P,U4,8,V+_8*%
%TO.N,+5V*%
X157815000Y-75045000D03*
%TO.P,U4,7*%
%TO.N,Net-(J1-Pin_3)*%
X157815000Y-77585000D03*
%TO.P,U4,6,-_6*%
X157815000Y-80125000D03*
%TO.P,U4,5,+_5*%
%TO.N,Net-(U4B-+)*%
X157815000Y-82665000D03*
%TO.P,U4,4,V-_4*%
%TO.N,GND*%
X150195000Y-82665000D03*
%TO.P,U4,3,+_3*%
%TO.N,Net-(D1-A)*%
X150195000Y-80125000D03*
%TO.P,U4,2,-_2*%
%TO.N,Net-(U4A--)*%
X150195000Y-77585000D03*
D11*
%TO.P,U4,1*%
%TO.N,Net-(D1-A)*%
X150195000Y-75045000D03*
%TD*%
%TO.P,U5,1*%
%TO.N,Net-(JArduino1-Pin_2)*%
X154195000Y-113690000D03*
D10*
%TO.P,U5,2,-_2*%
%TO.N,Net-(U5A--)*%
X154195000Y-116230000D03*
%TO.P,U5,3,+_3*%
%TO.N,Net-(D1-K)*%
X154195000Y-118770000D03*
%TO.P,U5,4,V-_4*%
%TO.N,GND*%
X154195000Y-121310000D03*
%TO.P,U5,5,+_5*%
%TO.N,Net-(U5B-+)*%
X161815000Y-121310000D03*
%TO.P,U5,6,-_6*%
%TO.N,Net-(U5A--)*%
X161815000Y-118770000D03*
%TO.P,U5,7*%
X161815000Y-116230000D03*
%TO.P,U5,8,V+_8*%
%TO.N,+5V*%
X161815000Y-113690000D03*
%TD*%
D11*
%TO.P,U3,1*%
%TO.N,Net-(U3A--)*%
X178695000Y-96690000D03*
D10*
%TO.P,U3,2,-_2*%
X178695000Y-99230000D03*
%TO.P,U3,3,+_3*%
%TO.N,Net-(U2B--)*%
X178695000Y-101770000D03*
%TO.P,U3,4,V-_4*%
%TO.N,GND*%
X178695000Y-104310000D03*
%TO.P,U3,5,+_5*%
%TO.N,Net-(U3A--)*%
X186315000Y-104310000D03*
%TO.P,U3,6,-_6*%
%TO.N,Net-(U3B--)*%
X186315000Y-101770000D03*
%TO.P,U3,7*%
%TO.N,Net-(U4A--)*%
X186315000Y-99230000D03*
%TO.P,U3,8,V+_8*%
%TO.N,+5V*%
X186315000Y-96690000D03*
%TD*%
D11*
%TO.P,U2,1*%
%TO.N,Net-(U2A--)*%
X150190000Y-96690000D03*
D10*
%TO.P,U2,2,-_2*%
X150190000Y-99230000D03*
%TO.P,U2,3,+_3*%
%TO.N,Net-(U2A-+)*%
X150190000Y-101770000D03*
%TO.P,U2,4,V-_4*%
%TO.N,GND*%
X150190000Y-104310000D03*
%TO.P,U2,5,+_5*%
%TO.N,Net-(U2B-+)*%
X157810000Y-104310000D03*
%TO.P,U2,6,-_6*%
%TO.N,Net-(U2B--)*%
X157810000Y-101770000D03*
%TO.P,U2,7*%
X157810000Y-99230000D03*
%TO.P,U2,8,V+_8*%
%TO.N,+5V*%
X157810000Y-96690000D03*
%TD*%
D12*
%TO.P,U1,1,Rg_1*%
%TO.N,Net-(R8-Pad2)*%
X126690000Y-96690000D03*
%TO.P,U1,2,-_2*%
%TO.N,Net-(J1-Pin_1)*%
X126690000Y-99230000D03*
%TO.P,U1,3,+_3*%
%TO.N,Net-(J1-Pin_2)*%
X126690000Y-101770000D03*
%TO.P,U1,4,Vs-_4*%
%TO.N,unconnected-(U1-Vs--Pad4)*%
X126690000Y-104310000D03*
%TO.P,U1,5,Ref_5*%
%TO.N,Net-(J1-Pin_3)*%
X134310000Y-104310000D03*
%TO.P,U1,6*%
%TO.N,Net-(C1-Pad2)*%
X134310000Y-101770000D03*
%TO.P,U1,7,Vs+_7*%
%TO.N,unconnected-(U1-Vs+-Pad7)*%
X134310000Y-99230000D03*
%TO.P,U1,8,Rg_8*%
%TO.N,Net-(R8-Pad1)*%
X134310000Y-96690000D03*
%TD*%
D10*
%TO.P,R12,1*%
%TO.N,GND*%
X127310000Y-76500000D03*
%TO.P,R12,2*%
%TO.N,Net-(U5B-+)*%
X119690000Y-76500000D03*
%TD*%
%TO.P,R11,1*%
%TO.N,Net-(U5B-+)*%
X120690000Y-83000000D03*
%TO.P,R11,2*%
%TO.N,+5V*%
X128310000Y-83000000D03*
%TD*%
%TO.P,R10,1*%
%TO.N,Net-(U4B-+)*%
X163000000Y-82810000D03*
%TO.P,R10,2*%
%TO.N,+5V*%
X163000000Y-75190000D03*
%TD*%
%TO.P,R9,1*%
%TO.N,GND*%
X150190000Y-87500000D03*
%TO.P,R9,2*%
%TO.N,Net-(U4B-+)*%
X157810000Y-87500000D03*
%TD*%
%TO.P,R8,1*%
%TO.N,Net-(R8-Pad1)*%
X134310000Y-92000000D03*
%TO.P,R8,2*%
%TO.N,Net-(R8-Pad2)*%
X126690000Y-92000000D03*
%TD*%
%TO.P,R7,1*%
%TO.N,GND*%
X131190000Y-82500000D03*
%TO.P,R7,2*%
%TO.N,Net-(D1-K)*%
X138810000Y-82500000D03*
%TD*%
%TO.P,R6,1*%
%TO.N,Net-(J1-Pin_3)*%
X178690000Y-91500000D03*
%TO.P,R6,2*%
%TO.N,Net-(U3B--)*%
X186310000Y-91500000D03*
%TD*%
%TO.P,R5,1*%
%TO.N,Net-(C3-Pad2)*%
X168310000Y-93500000D03*
%TO.P,R5,2*%
%TO.N,Net-(U2A--)*%
X160690000Y-93500000D03*
%TD*%
%TO.P,R4,1*%
%TO.N,Net-(U3B--)*%
X187810000Y-78500000D03*
%TO.P,R4,2*%
%TO.N,Net-(U4A--)*%
X180190000Y-78500000D03*
%TD*%
%TO.P,R3,1*%
%TO.N,Net-(C3-Pad2)*%
X160690000Y-98500000D03*
%TO.P,R3,2*%
%TO.N,Net-(U2B-+)*%
X168310000Y-98500000D03*
%TD*%
%TO.P,R2,1*%
%TO.N,Net-(J1-Pin_3)*%
X139690000Y-107500000D03*
%TO.P,R2,2*%
%TO.N,Net-(U2A-+)*%
X147310000Y-107500000D03*
%TD*%
%TO.P,R1,1*%
%TO.N,Net-(U2A--)*%
X147810000Y-91500000D03*
%TO.P,R1,2*%
%TO.N,Net-(C1-Pad1)*%
X140190000Y-91500000D03*
%TD*%
D13*
%TO.P,J_BATT1,1,Pin_1_1*%
%TO.N,+5V*%
X132000000Y-75500000D03*
D14*
%TO.P,J_BATT1,2,Pin_2_2*%
%TO.N,GND*%
X134540000Y-75500000D03*
%TD*%
%TO.P,JArduino1,2,Pin_2_2*%
%TO.N,Net-(JArduino1-Pin_2)*%
X136000000Y-118235000D03*
D13*
%TO.P,JArduino1,1,Pin_1_1*%
%TO.N,GND*%
X136000000Y-120775000D03*
%TD*%
%TO.P,J1,1,Pin_1_1*%
%TO.N,Net-(J1-Pin_1)*%
X121000000Y-103540000D03*
D14*
%TO.P,J1,2,Pin_2_2*%
%TO.N,Net-(J1-Pin_2)*%
X121000000Y-101000000D03*
%TO.P,J1,3,Pin_3_3*%
%TO.N,Net-(J1-Pin_3)*%
X121000000Y-98460000D03*
%TD*%
D15*
%TO.P,D1,1,K_1*%
%TO.N,Net-(D1-K)*%
X147310000Y-76500000D03*
D10*
%TO.P,D1,2,A_2*%
%TO.N,Net-(D1-A)*%
X139690000Y-76500000D03*
%TD*%
%TO.P,C9,1*%
%TO.N,GND*%
X180500000Y-116000000D03*
%TO.P,C9,2*%
%TO.N,+5V*%
X185500000Y-116000000D03*
%TD*%
%TO.P,C8,1*%
%TO.N,GND*%
X172500000Y-102000000D03*
%TO.P,C8,2*%
%TO.N,+5V*%
X172500000Y-97000000D03*
%TD*%
%TO.P,C7,1*%
%TO.N,GND*%
X180500000Y-110000000D03*
%TO.P,C7,2*%
%TO.N,+5V*%
X185500000Y-110000000D03*
%TD*%
%TO.P,C6,1*%
%TO.N,GND*%
X142000000Y-82500000D03*
%TO.P,C6,2*%
%TO.N,+5V*%
X147000000Y-82500000D03*
%TD*%
%TO.P,C5,1*%
%TO.N,GND*%
X145500000Y-118500000D03*
%TO.P,C5,2*%
%TO.N,Net-(D1-K)*%
X150500000Y-118500000D03*
%TD*%
%TO.P,C4,2*%
%TO.N,Net-(U2B-+)*%
X167500000Y-108000000D03*
%TO.P,C4,1*%
%TO.N,GND*%
X162500000Y-108000000D03*
%TD*%
%TO.P,C3,2*%
%TO.N,Net-(C3-Pad2)*%
X167000000Y-102500000D03*
%TO.P,C3,1*%
%TO.N,Net-(U2B--)*%
X162000000Y-102500000D03*
%TD*%
%TO.P,C2,1*%
%TO.N,Net-(U2A-+)*%
X141000000Y-101500000D03*
%TO.P,C2,2*%
%TO.N,Net-(C1-Pad1)*%
X146000000Y-101500000D03*
%TD*%
%TO.P,C1,1*%
%TO.N,Net-(C1-Pad1)*%
X141000000Y-96500000D03*
%TO.P,C1,2*%
%TO.N,Net-(C1-Pad2)*%
X146000000Y-96500000D03*
%TD*%
D16*
%TO.N,GND*%
X168807490Y-92298954D03*
%TD*%
%TO.N,Net-(D1-K)*%
D17*
X147310000Y-78887057D02*
X147310000Y-76500000D01*
X142497057Y-83700000D02*
X147310000Y-78887057D01*
X140010000Y-83700000D02*
X142497057Y-83700000D01*
X138810000Y-82500000D02*
X140010000Y-83700000D01*
%TO.N,GND*%
X155610000Y-114890000D02*
X162500000Y-108000000D01*
X153837943Y-114890000D02*
X155610000Y-114890000D01*
X152995000Y-115732943D02*
X153837943Y-114890000D01*
X152995000Y-116727057D02*
X152995000Y-115732943D01*
X153697943Y-117430000D02*
X152995000Y-116727057D01*
X154692057Y-117430000D02*
X153697943Y-117430000D01*
X155395000Y-118132943D02*
X154692057Y-117430000D01*
X155395000Y-120110000D02*
X155395000Y-118132943D01*
X154195000Y-121310000D02*
X155395000Y-120110000D01*
%TO.N,+5V*%
X180134415Y-95490000D02*
X180134415Y-97286472D01*
X172500000Y-97000000D02*
X174010000Y-95490000D01*
X180134415Y-97286472D02*
X185847943Y-103000000D01*
X189010000Y-103000000D02*
X189010000Y-78002943D01*
X185847943Y-103000000D02*
X189010000Y-103000000D01*
X174010000Y-95490000D02*
X180134415Y-95490000D01*
X156615000Y-73845000D02*
X157815000Y-75045000D01*
X133655000Y-73845000D02*
X156615000Y-73845000D01*
X132000000Y-75500000D02*
X133655000Y-73845000D01*
X186197057Y-75190000D02*
X163000000Y-75190000D01*
X189010000Y-78002943D02*
X186197057Y-75190000D01*
X189010000Y-106490000D02*
X189010000Y-103000000D01*
X185500000Y-110000000D02*
X189010000Y-106490000D01*
X185500000Y-110000000D02*
X185500000Y-116000000D01*
X165325000Y-117200000D02*
X184300000Y-117200000D01*
X184300000Y-117200000D02*
X185500000Y-116000000D01*
X161815000Y-113690000D02*
X165325000Y-117200000D01*
%TO.N,Net-(U5A--)*%
X154195000Y-116230000D02*
X161815000Y-116230000D01*
X161815000Y-116230000D02*
X161815000Y-118770000D01*
%TO.N,Net-(U5B-+)*%
X135235000Y-122510000D02*
X160615000Y-122510000D01*
X118500000Y-105775000D02*
X135235000Y-122510000D01*
X118500000Y-85190000D02*
X118500000Y-105775000D01*
X160615000Y-122510000D02*
X161815000Y-121310000D01*
X120690000Y-83000000D02*
X118500000Y-85190000D01*
X120690000Y-77500000D02*
X119690000Y-76500000D01*
X120690000Y-83000000D02*
X120690000Y-77500000D01*
%TO.N,Net-(J1-Pin_1)*%
X124670000Y-97210000D02*
X126690000Y-99230000D01*
X119750000Y-102290000D02*
X119750000Y-97942233D01*
X120482233Y-97210000D02*
X124670000Y-97210000D01*
X121000000Y-103540000D02*
X119750000Y-102290000D01*
X119750000Y-97942233D02*
X120482233Y-97210000D01*
%TO.N,Net-(J1-Pin_3)*%
X130430000Y-100430000D02*
X134310000Y-104310000D01*
X122970000Y-100430000D02*
X130430000Y-100430000D01*
X121000000Y-98460000D02*
X122970000Y-100430000D01*
%TO.N,Net-(J1-Pin_2)*%
X122270000Y-101770000D02*
X126690000Y-101770000D01*
X121500000Y-101000000D02*
X122270000Y-101770000D01*
X121000000Y-101000000D02*
X121500000Y-101000000D01*
%TO.N,Net-(R8-Pad2)*%
X126690000Y-92000000D02*
X126690000Y-96690000D01*
%TO.N,Net-(R8-Pad1)*%
X134310000Y-96690000D02*
X134310000Y-92000000D01*
%TO.N,Net-(C1-Pad2)*%
X144197057Y-103000000D02*
X141197057Y-100000000D01*
X146197057Y-103000000D02*
X144197057Y-103000000D01*
X141197057Y-100000000D02*
X136080000Y-100000000D01*
X147200000Y-101997057D02*
X146197057Y-103000000D01*
X147200000Y-97700000D02*
X147200000Y-101997057D01*
X146000000Y-96500000D02*
X147200000Y-97700000D01*
X136080000Y-100000000D02*
X134310000Y-101770000D01*
%TO.N,Net-(C1-Pad1)*%
X141000000Y-96500000D02*
X146000000Y-101500000D01*
X140190000Y-95690000D02*
X141000000Y-96500000D01*
X140190000Y-91500000D02*
X140190000Y-95690000D01*
%TO.N,+5V*%
X145200000Y-84300000D02*
X147000000Y-82500000D01*
X129610000Y-84300000D02*
X145200000Y-84300000D01*
X128310000Y-83000000D02*
X129610000Y-84300000D01*
X131800000Y-75300000D02*
X132000000Y-75500000D01*
X126812943Y-75300000D02*
X131800000Y-75300000D01*
X126110000Y-76002943D02*
X126812943Y-75300000D01*
X126110000Y-80800000D02*
X126110000Y-76002943D01*
X128310000Y-83000000D02*
X126110000Y-80800000D01*
X154697057Y-96690000D02*
X157810000Y-96690000D01*
X147000000Y-88992943D02*
X154697057Y-96690000D01*
X147000000Y-82500000D02*
X147000000Y-88992943D01*
%TO.N,Net-(J1-Pin_3)*%
X137500000Y-107500000D02*
X134310000Y-104310000D01*
X139690000Y-107500000D02*
X137500000Y-107500000D01*
%TO.N,Net-(U2A-+)*%
X147000000Y-107500000D02*
X147310000Y-107500000D01*
X141000000Y-101500000D02*
X147000000Y-107500000D01*
X147310000Y-104650000D02*
X147310000Y-107500000D01*
X150190000Y-101770000D02*
X147310000Y-104650000D01*
%TO.N,+5V*%
X181990000Y-77754415D02*
X179425585Y-75190000D01*
X179425585Y-75190000D02*
X163000000Y-75190000D01*
X181990000Y-92365000D02*
X181990000Y-77754415D01*
X186315000Y-96690000D02*
X181990000Y-92365000D01*
%TO.N,Net-(U4B-+)*%
X157815000Y-87495000D02*
X157810000Y-87500000D01*
X157815000Y-82665000D02*
X157815000Y-87495000D01*
X157960000Y-82810000D02*
X157815000Y-82665000D01*
X163000000Y-82810000D02*
X157960000Y-82810000D01*
%TO.N,Net-(J1-Pin_3)*%
X157815000Y-77585000D02*
X157815000Y-80125000D01*
X158100000Y-77300000D02*
X157815000Y-77585000D01*
X181390000Y-78002943D02*
X180687057Y-77300000D01*
X181390000Y-88800000D02*
X181390000Y-78002943D01*
X180687057Y-77300000D02*
X158100000Y-77300000D01*
X178690000Y-91500000D02*
X181390000Y-88800000D01*
%TO.N,Net-(U4A--)*%
X172000000Y-86507057D02*
X172000000Y-81325000D01*
X184722943Y-99230000D02*
X172000000Y-86507057D01*
X186315000Y-99230000D02*
X184722943Y-99230000D01*
X172000000Y-81325000D02*
X149697943Y-81325000D01*
%TO.N,Net-(U3B--)*%
X187515000Y-100570000D02*
X186315000Y-101770000D01*
X187515000Y-92705000D02*
X187515000Y-100570000D01*
X186310000Y-91500000D02*
X187515000Y-92705000D01*
X187810000Y-90000000D02*
X186310000Y-91500000D01*
X187810000Y-78500000D02*
X187810000Y-90000000D01*
%TO.N,Net-(U4A--)*%
X148995000Y-78785000D02*
X150195000Y-77585000D01*
X149697943Y-81325000D02*
X148995000Y-80622057D01*
X177365000Y-81325000D02*
X172000000Y-81325000D01*
X180190000Y-78500000D02*
X177365000Y-81325000D01*
X148995000Y-80622057D02*
X148995000Y-78785000D01*
%TO.N,+5V*%
X163000000Y-75190000D02*
X157960000Y-75190000D01*
X157960000Y-75190000D02*
X157815000Y-75045000D01*
%TO.N,GND*%
X150195000Y-87185000D02*
X150195000Y-82665000D01*
X153880000Y-108000000D02*
X162500000Y-108000000D01*
X150190000Y-104310000D02*
X153880000Y-108000000D01*
X180500000Y-110000000D02*
X180500000Y-116000000D01*
X178695000Y-108195000D02*
X180500000Y-110000000D01*
X178695000Y-104310000D02*
X178695000Y-108195000D01*
X173805000Y-109200000D02*
X178695000Y-104310000D01*
X163700000Y-109200000D02*
X173805000Y-109200000D01*
X162500000Y-108000000D02*
X163700000Y-109200000D01*
X170110000Y-99610000D02*
X172500000Y-102000000D01*
X170110000Y-93602943D02*
X170110000Y-99610000D01*
X168807057Y-92300000D02*
X170110000Y-93602943D01*
X164037057Y-92300000D02*
X168807057Y-92300000D01*
X158307057Y-98030000D02*
X164037057Y-92300000D01*
X156610000Y-98732943D02*
X157312943Y-98030000D01*
X157312943Y-98030000D02*
X158307057Y-98030000D01*
X156610000Y-102267057D02*
X156610000Y-98732943D01*
X157312943Y-102970000D02*
X156610000Y-102267057D01*
X158307057Y-102970000D02*
X157312943Y-102970000D01*
X162500000Y-107162943D02*
X158307057Y-102970000D01*
X162500000Y-108000000D02*
X162500000Y-107162943D01*
%TO.N,Net-(U2B-+)*%
X165802943Y-108000000D02*
X167500000Y-108000000D01*
X159490000Y-101687057D02*
X165802943Y-108000000D01*
X159490000Y-98002943D02*
X159490000Y-101687057D01*
X160192943Y-97300000D02*
X159490000Y-98002943D01*
X167110000Y-97300000D02*
X160192943Y-97300000D01*
X168310000Y-98500000D02*
X167110000Y-97300000D01*
%TO.N,Net-(C3-Pad2)*%
X163000000Y-98500000D02*
X167000000Y-102500000D01*
X160690000Y-98500000D02*
X163000000Y-98500000D01*
X169510000Y-94700000D02*
X168310000Y-93500000D01*
X169510000Y-99990000D02*
X169510000Y-94700000D01*
X167000000Y-102500000D02*
X169510000Y-99990000D01*
%TO.N,Net-(U2B--)*%
X163200000Y-103700000D02*
X162000000Y-102500000D01*
X178695000Y-101770000D02*
X176765000Y-103700000D01*
X176765000Y-103700000D02*
X163200000Y-103700000D01*
%TO.N,Net-(U3A--)*%
X178695000Y-96690000D02*
X178695000Y-99230000D01*
X183775000Y-104310000D02*
X178695000Y-99230000D01*
X186315000Y-104310000D02*
X183775000Y-104310000D01*
%TO.N,Net-(D1-A)*%
X152500000Y-77350000D02*
X152500000Y-77820000D01*
X152500000Y-77820000D02*
X150195000Y-80125000D01*
X150195000Y-75045000D02*
X152500000Y-77350000D01*
X141145000Y-75045000D02*
X150195000Y-75045000D01*
X139690000Y-76500000D02*
X141145000Y-75045000D01*
%TO.N,Net-(JArduino1-Pin_2)*%
X140545000Y-113690000D02*
X154195000Y-113690000D01*
X136000000Y-118235000D02*
X140545000Y-113690000D01*
%TO.N,Net-(D1-K)*%
X153925000Y-118500000D02*
X154195000Y-118770000D01*
X150500000Y-118500000D02*
X153925000Y-118500000D01*
%TO.N,GND*%
X145500000Y-118500000D02*
X148310000Y-121310000D01*
X148310000Y-121310000D02*
X154195000Y-121310000D01*
X143225000Y-120775000D02*
X145500000Y-118500000D01*
X136000000Y-120775000D02*
X143225000Y-120775000D01*
X133290000Y-76750000D02*
X134540000Y-75500000D01*
X127560000Y-76750000D02*
X133290000Y-76750000D01*
X127310000Y-76500000D02*
X127560000Y-76750000D01*
X141540000Y-82500000D02*
X142000000Y-82500000D01*
X134540000Y-75500000D02*
X141540000Y-82500000D01*
X127310000Y-78620000D02*
X131190000Y-82500000D01*
X127310000Y-76500000D02*
X127310000Y-78620000D01*
%TD*%
M02*
